<svg id="Layer_1" data-name="Layer 1" xmlns="http://www.w3.org/2000/svg" width="75" height="75" viewBox="0 0 25 25">
  <title>mymarker</title>
  <g id="Rasmus">
    <ellipse cx="12.41" cy="23.53" rx="5.41" ry="0.77" fill="#181e13" opacity="0.32" style="isolation: isolate"/>
    <path d="M8.68,5.3S6.1,6.77,6.18,7.4a8.85,8.85,0,0,0,2-.45l.28-.07A2.83,2.83,0,0,1,8.68,5.3Z" fill="#212020"/>
    <path d="M14.84,23l.44.32c.28,0,1.24.08,1.54.07l0-.27c0-.22-.54-.13-.71-.21l-.94-.76c-.17-.09-.12-.1-.47.15h0C14.26,22.6,14.67,22.93,14.84,23Z" fill="#f2f1f0"/>
    <path d="M10.2,23l-.44.32c-.28,0-1.24.08-1.54.07l0-.27c0-.22.54-.13.71-.21l.94-.76c.17-.09.12-.1.47.15h0C10.78,22.6,10.37,22.93,10.2,23Z" fill="#f2f1f0"/>
    <path d="M14.18,19.59l-3.56.74A1.29,1.29,0,0,1,9.29,19.1V14.88a1.28,1.28,0,0,1,1.33-1.23h3.8a1.29,1.29,0,0,1,1.33,1.23V19.1C15.75,19.78,14.91,19.59,14.18,19.59Z" fill="#edccb0"/>
    <ellipse cx="12.55" cy="7.41" rx="4.25" ry="6.53" fill="#dbb389"/>
    <path d="M9.59,19.47s-1.53-.37-1.4.76c.09.78,1.2,1.64,1.47,2.06,0,0,.35.17.44-.09,0,0-.33-.13-.19-1,.12-.66,1.78-.43,3.43-.85,0,0,.32-.28,2.28-.16,0,0-.3.71-.58,1.44-.2.53,0,0-.18.55a.28.28,0,0,0,.47.09s.48-.69,1.06-1.58c1.15-1.75.16-1.89-.22-1.72l-2.09.67-3.22.14Z" fill="#2d2d2d"/>
    <path d="M9.27,8.42c0,.86-.44,1.56-1,1.56s-1-1.36-1-2.22.44-.9,1-.9S9.27,7.56,9.27,8.42Z" fill="#dbb389"/>
    <ellipse cx="11.52" cy="6.93" rx="1.2" ry="1.58" fill="#fcfcfc"/>
    <ellipse cx="15.28" cy="6.88" rx="0.94" ry="1.54" fill="#fcfcfc"/>
    <ellipse cx="10.77" cy="7.26" rx="0.24" ry="0.25" fill="#212020"/>
    <ellipse cx="14.98" cy="7.2" rx="0.24" ry="0.25" fill="#212020"/>
    <path d="M9.51,14.25s-.65.23-1.46,4.86c0,0-.1.14.14.32,0,0,1.64,0,2,.51l.29-.32a5,5,0,0,0-1.52-.92L9.29,16Z" fill="#dbb389"/>
    <path d="M15.36,14s.65.23,1.46,4.86c0,0,.1.14-.14.32,0,0-1.64,0-2,.51l-.29-.32a5,5,0,0,1,1.52-.92l-.36-2.69Z" fill="#dbb389"/>
    <ellipse cx="10.43" cy="20.19" rx="0.41" ry="0.62" fill="#dbb389"/>
    <ellipse cx="14.41" cy="20" rx="0.41" ry="0.62" fill="#dbb389"/>
    <rect x="9.58" y="4.92" width="3.3" height="2.28" fill="#dbb389"/>
    <rect x="14.29" y="5.35" width="1.93" height="1.85" fill="#dbb389"/>
    <path d="M8.34,5.68s5.5-2.52,7.89-1.5a3.39,3.39,0,0,0-4-3.46S7.75.66,8.34,5.68Z" fill="#212020"/>
    <path d="M11.93,5.33s-1.43-.13-2,.76c0,0-.49.39-.23.73,0,0,1.5-1,2.23-.75Z" fill="#30241b"/>
    <path d="M14.47,6V5.31s1.43-.13,2,.76" fill="#30241b"/>
    <path d="M11.52,3.68s2.28-.81,3-.44C14.55,3.24,13,.38,11.52,3.68Z" fill="#dbb389"/>
    <path d="M7.68,7.79s.06-.59.38-.45a.88.88,0,0,1,.37.87s-.54.17-.52.54c0,0,.15.34.43.37a.8.8,0,0,1,0,.27.08.08,0,0,1,0,0A1.48,1.48,0,0,1,7.68,7.79Z" fill="#cca387"/>
    <path d="M12.75,11.71l.9.1c.19,0,.3,0,.34.08l0-.21Z" fill="#ad886f"/>
    <polygon points="13.8 11.78 13.5 12.05 13.63 11.74 13.8 11.78" fill="#ad886f"/>
    <path d="M13,10.85s-1.23.23-1.55.34l.74.15a13.21,13.21,0,0,1,2.85-.13l.22-.12-.12-.25Z" fill="#6b3f2d" opacity="0.36" style="isolation: isolate"/>
    <path d="M13.9,6a7.44,7.44,0,0,1,1.43,4.46s.06.84-2.26.2C13.08,10.63,13.26,6.52,13.9,6Z" fill="#bf9879"/>
    <path d="M13.63,6.11S14.78,7.17,15,10.25c0,0,.17.23-.31.36a6.62,6.62,0,0,1-1.85-.13C12.22,10.28,13.63,6.11,13.63,6.11Z" fill="#dbb389"/>
    <path d="M9.58,5.18s-.81.56-.73,1.1L8.69,7.82s-.21.66-.24-.14a3.7,3.7,0,0,1-.1-2Z" fill="#5e4430"/>
    <path d="M14.55,3.24a1.32,1.32,0,0,0-.45-.84,1.6,1.6,0,0,0-2.18.21l-.4,1.07A17,17,0,0,1,14.55,3.24Z" fill="#30241b"/>
    <path d="M11.32,13.65S10,13.38,9.43,14a8,8,0,0,0-.92,1.78l.78,1v2.1a7.83,7.83,0,0,1,1.14.75l.44.18,3.31-.16s-.19-.22.23-.21a5.36,5.36,0,0,1,1.34-.87V16.67l.7-.5a9,9,0,0,0-.7-2.19s-1.22-.57-1.81-.34a3.07,3.07,0,0,1-.92.23,3.65,3.65,0,0,1-.77,0Z" fill="#1c1c1c"/>
    <path d="M16.37,16.67s-.13.21-.11.28-.08.17-.18.16-.23-.05-.23-.12.18.09.21.06.14,0,.14-.09,0-.29.1-.29l0,0Z" fill="#3a3532" opacity="0.63" style="isolation: isolate"/>
    <path d="M15.93,16.77s-.1.08-.06.14L16,17,16,16.9s0,0,0,0,.06,0,.06,0l.07,0,0-.07v-.12l0-.06.06-.09.06,0s-.1-.12-.09-.16l0-.12-.14.14v-.07l-.39.27,0,.14Z" fill="#3a3532" opacity="0.63" style="isolation: isolate"/>
    <path d="M16.31,16.9l.12.07.05.25a.41.41,0,0,0,0,.16s-.24-.07-.22-.18Z" fill="#3a3532" opacity="0.63" style="isolation: isolate"/>
    <path d="M16.27,18.56s-.12-.17-.09-.23v-.12a1.6,1.6,0,0,1,.27.23l.06.08.09,0,0,.07,0,.07-.07,0,.16.25h-.18a.2.2,0,0,1-.16-.08.27.27,0,0,0-.2-.09l-.1,0-.08,0,.06-.07.12,0Z" fill="#3a3532" opacity="0.63" style="isolation: isolate"/>
    <polygon points="15.8 17.45 15.93 17.82 16.06 17.87 16.11 17.74 15.96 17.47 16.19 17.61 15.86 17.22 15.75 17.07 15.8 17.45" fill="#3a3532" opacity="0.63" style="isolation: isolate"/>
    <polygon points="15.46 18.65 15.56 18.82 15.51 18.92 15.1 18.86 15.46 18.65" fill="#3a3532" opacity="0.63" style="isolation: isolate"/>
    <path d="M15.12,18.92s.09.16.23.16l.1,0L15.33,19s-.15,0-.14-.08Z" fill="#3a3532" opacity="0.63" style="isolation: isolate"/>
    <path d="M16.06,17.17l-.21,0,.33.36.18-.08s-.25-.16-.23-.22l0,.06Z" fill="#3a3532" opacity="0.63" style="isolation: isolate"/>
    <path d="M11.32,13.65a4.5,4.5,0,0,0,1,1.27,1.56,1.56,0,0,0,.5,0s.75-.16,1.08-1.3l-.09,0s-.27,1-.88,1.18a.81.81,0,0,1-.7-.06,3.78,3.78,0,0,1-.82-1.11Z" fill="#d8ba25"/>
    <ellipse cx="12.66" cy="15.2" rx="0.21" ry="0.23" fill="#d8ba25"/>
    <path d="M8.19,20.19s.7-.25,1-.06c0,0-.38-.58-.76-.55C8.43,19.58,8.14,19.69,8.19,20.19Z" fill="#dbb389"/>
    <path d="M16.91,19.61a1,1,0,0,0-.8.17s.59-.62.76-.59C16.88,19.18,17.06,19.24,16.91,19.61Z" fill="#dbb389"/>
    <polygon points="14.39 19.39 14.94 19.68 14.79 19.84 14.22 19.59 14.03 19.51 14.24 19.31 14.39 19.39" fill="#d8ba25"/>
    <polygon points="14.78 19.51 14.49 19.82 14.14 19.62 14.49 19.32 14.78 19.51" fill="#d8ba25"/>
    <polygon points="14.49 19.42 14.31 19.59 14.49 19.72 14.65 19.54 14.49 19.42" fill="#1c1c1c"/>
    <path d="M11.32,3.82l.2.69L15,3.82s.49-.41-.09-.58A16.68,16.68,0,0,0,11.32,3.82Z" fill="#1e1d1d"/>
    <ellipse cx="11.96" cy="4.05" rx="0.09" ry="0.09" fill="#212020"/>
    <ellipse cx="12.67" cy="3.9" rx="0.08" ry="0.09" fill="#212020"/>
    <ellipse cx="13.33" cy="3.77" rx="0.08" ry="0.08" fill="#212020"/>
    <circle cx="13.98" cy="3.68" r="0.07" fill="#212020"/>
    <ellipse cx="14.56" cy="3.61" rx="0.07" ry="0.08" fill="#212020"/>
    <path d="M8.44,8.5s0,4.88,4.09,5.45c0,0,2.89.68,4.25-5.27A6,6,0,0,1,15,11.24l-.46,1.14s-.79,1.22-2.57.18a1.25,1.25,0,0,1-.46-1S9.75,10.66,9.41,10l-.72-.82Z" fill="#6b3f2d" opacity="0.36" style="isolation: isolate"/>
    <polygon points="14.19 20.25 13.67 20.94 13.81 21.04 14.31 20.33 14.19 20.25" fill="#f7f6f5"/>
    <polygon points="13.67 20.94 13.81 21.04 13.74 21.16 13.6 21.05 13.67 20.94" fill="#424242"/>
    <path d="M9.38,22l.52-.12a1,1,0,0,0,.2.36s-.12.24-.44.09Z" fill="#dbb389"/>
    <path d="M15,21.75a.7.7,0,0,0,.51.25l-.17.25s-.32.3-.47-.09Z" fill="#dbb389"/>
  </g>
</svg>
